# MagicaVoxel @ Ephtracy

# group
g Wood

# material
mtllib Wood.mtl
usemtl palette

# normals
vn -1 0 0
vn 1 0 0
vn 0 0 1
vn 0 0 -1
vn 0 -1 0
vn 0 1 0

# texcoords
vt 0.0292969 0.5
vt 0.169922 0.5
vt 0.244141 0.5
vt 0.630859 0.5
vt 0.958984 0.5
vt 0.974609 0.5

# verts
v -4 2 9
v -4 2 -9
v -4 6 9
v -4 6 -3
v -4 6 -4
v -4 6 -9
v -4 8 -3
v -4 8 -4
v -4 9 -3
v -4 9 -4
v -4 9 -5
v -4 10 -4
v -4 10 -5
v -3 1 9
v -3 1 -9
v -3 2 9
v -3 2 -9
v -3 6 9
v -3 6 -3
v -3 6 -4
v -3 6 -9
v -3 7 9
v -3 7 -3
v -3 7 -4
v -3 7 -9
v -2 0 9
v -2 0 -9
v -2 1 9
v -2 1 -9
v -2 7 9
v -2 7 -9
v -2 8 9
v -2 8 -9
v -3 7 -3
v -3 7 -4
v -3 8 -3
v -3 8 -4
v -3 9 -3
v -3 9 -4
v -3 9 -5
v -3 10 -4
v -3 10 -5
v 2 0 9
v 2 0 -9
v 2 1 9
v 2 1 -9
v 2 7 9
v 2 7 -9
v 2 8 9
v 2 8 -9
v 3 1 9
v 3 1 -9
v 3 2 9
v 3 2 -9
v 3 6 9
v 3 6 -9
v 3 7 9
v 3 7 -9
v 4 2 9
v 4 2 -9
v 4 6 9
v 4 6 -9
v -4 2 9
v -4 6 9
v -3 1 9
v -3 2 9
v -3 6 9
v -3 7 9
v -2 0 9
v -2 1 9
v -2 2 9
v -2 3 9
v -2 5 9
v -2 6 9
v -2 7 9
v -2 8 9
v -1 2 9
v -1 3 9
v -1 5 9
v -1 6 9
v 1 2 9
v 1 3 9
v 1 5 9
v 1 6 9
v 2 0 9
v 2 1 9
v 2 2 9
v 2 3 9
v 2 5 9
v 2 6 9
v 2 7 9
v 2 8 9
v 3 1 9
v 3 2 9
v 3 6 9
v 3 7 9
v 4 2 9
v 4 6 9
v -4 6 -3
v -4 8 -3
v -4 9 -3
v -3 6 -3
v -3 7 -3
v -3 8 -3
v -3 9 -3
v -4 9 -4
v -4 10 -4
v -3 9 -4
v -3 10 -4
v -4 6 -4
v -4 8 -4
v -4 9 -4
v -3 6 -4
v -3 7 -4
v -3 8 -4
v -3 9 -4
v -4 9 -5
v -4 10 -5
v -3 9 -5
v -3 10 -5
v -4 2 -9
v -4 6 -9
v -3 1 -9
v -3 2 -9
v -3 6 -9
v -3 7 -9
v -2 0 -9
v -2 1 -9
v -2 2 -9
v -2 3 -9
v -2 5 -9
v -2 6 -9
v -2 7 -9
v -2 8 -9
v -1 2 -9
v -1 3 -9
v -1 5 -9
v -1 6 -9
v 1 2 -9
v 1 3 -9
v 1 5 -9
v 1 6 -9
v 2 0 -9
v 2 1 -9
v 2 2 -9
v 2 3 -9
v 2 5 -9
v 2 6 -9
v 2 7 -9
v 2 8 -9
v 3 1 -9
v 3 2 -9
v 3 6 -9
v 3 7 -9
v 4 2 -9
v 4 6 -9
v -2 0 9
v 2 0 9
v -2 0 -9
v 2 0 -9
v -3 1 9
v -2 1 9
v 2 1 9
v 3 1 9
v -3 1 -9
v -2 1 -9
v 2 1 -9
v 3 1 -9
v -4 2 9
v -3 2 9
v 3 2 9
v 4 2 9
v -4 2 -9
v -3 2 -9
v 3 2 -9
v 4 2 -9
v -4 9 -4
v -3 9 -4
v -4 9 -5
v -3 9 -5
v -4 6 9
v -3 6 9
v 3 6 9
v 4 6 9
v -4 6 -3
v -3 6 -3
v -4 6 -4
v -3 6 -4
v -4 6 -9
v -3 6 -9
v 3 6 -9
v 4 6 -9
v -3 7 9
v -2 7 9
v 2 7 9
v 3 7 9
v -3 7 -3
v -3 7 -4
v -3 7 -9
v -2 7 -9
v 2 7 -9
v 3 7 -9
v -2 8 9
v 2 8 9
v -2 8 -9
v 2 8 -9
v -4 9 -3
v -3 9 -3
v -4 9 -4
v -3 9 -4
v -4 10 -4
v -3 10 -4
v -4 10 -5
v -3 10 -5

# faces
f 3/2/1 2/2/1 1/2/1
f 4/2/1 2/2/1 3/2/1
f 5/2/1 2/2/1 4/2/1
f 6/2/1 2/2/1 5/2/1
f 7/2/1 5/2/1 4/2/1
f 8/2/1 5/2/1 7/2/1
f 9/4/1 8/4/1 7/4/1
f 10/4/1 8/4/1 9/4/1
f 12/4/1 11/4/1 10/4/1
f 13/4/1 11/4/1 12/4/1
f 16/2/1 15/2/1 14/2/1
f 17/2/1 15/2/1 16/2/1
f 22/2/1 19/2/1 18/2/1
f 23/2/1 19/2/1 22/2/1
f 24/2/1 21/2/1 20/2/1
f 25/2/1 21/2/1 24/2/1
f 28/2/1 27/2/1 26/2/1
f 29/2/1 27/2/1 28/2/1
f 32/2/1 31/2/1 30/2/1
f 33/2/1 31/2/1 32/2/1
f 34/2/2 35/2/2 36/2/2
f 36/2/2 35/2/2 37/2/2
f 36/4/2 37/4/2 38/4/2
f 38/4/2 37/4/2 39/4/2
f 39/4/2 40/4/2 41/4/2
f 41/4/2 40/4/2 42/4/2
f 43/2/2 44/2/2 45/2/2
f 45/2/2 44/2/2 46/2/2
f 47/2/2 48/2/2 49/2/2
f 49/2/2 48/2/2 50/2/2
f 51/2/2 52/2/2 53/2/2
f 53/2/2 52/2/2 54/2/2
f 55/2/2 56/2/2 57/2/2
f 57/2/2 56/2/2 58/2/2
f 59/2/2 60/2/2 61/2/2
f 61/2/2 60/2/2 62/2/2
f 66/2/3 64/2/3 63/2/3
f 67/2/3 64/2/3 66/2/3
f 70/2/3 66/2/3 65/2/3
f 71/3/3 67/3/3 66/3/3
f 71/2/3 66/2/3 70/2/3
f 72/3/3 67/3/3 71/3/3
f 73/3/3 67/3/3 72/3/3
f 74/2/3 68/2/3 67/2/3
f 74/3/3 67/3/3 73/3/3
f 75/2/3 68/2/3 74/2/3
f 77/3/3 71/3/3 70/3/3
f 77/3/3 72/3/3 71/3/3
f 78/1/3 73/1/3 72/1/3
f 78/3/3 72/3/3 77/3/3
f 79/3/3 75/3/3 74/3/3
f 79/1/3 73/1/3 78/1/3
f 79/3/3 74/3/3 73/3/3
f 80/3/3 75/3/3 79/3/3
f 81/3/3 77/3/3 70/3/3
f 81/1/3 78/1/3 77/1/3
f 82/3/3 79/3/3 78/3/3
f 82/1/3 78/1/3 81/1/3
f 83/1/3 80/1/3 79/1/3
f 83/3/3 79/3/3 82/3/3
f 84/3/3 75/3/3 80/3/3
f 84/1/3 80/1/3 83/1/3
f 85/2/3 70/2/3 69/2/3
f 86/3/3 82/3/3 81/3/3
f 86/2/3 70/2/3 85/2/3
f 86/3/3 81/3/3 70/3/3
f 87/3/3 82/3/3 86/3/3
f 88/1/3 83/1/3 82/1/3
f 88/3/3 82/3/3 87/3/3
f 89/3/3 84/3/3 83/3/3
f 89/1/3 83/1/3 88/1/3
f 90/3/3 75/3/3 84/3/3
f 90/3/3 84/3/3 89/3/3
f 91/2/3 76/2/3 75/2/3
f 91/3/3 75/3/3 90/3/3
f 92/2/3 76/2/3 91/2/3
f 93/2/3 87/2/3 86/2/3
f 94/3/3 89/3/3 88/3/3
f 94/2/3 87/2/3 93/2/3
f 94/3/3 90/3/3 89/3/3
f 94/3/3 88/3/3 87/3/3
f 95/2/3 91/2/3 90/2/3
f 95/3/3 90/3/3 94/3/3
f 96/2/3 91/2/3 95/2/3
f 97/2/3 95/2/3 94/2/3
f 98/2/3 95/2/3 97/2/3
f 102/2/3 100/2/3 99/2/3
f 103/2/3 100/2/3 102/2/3
f 104/4/3 101/4/3 100/4/3
f 104/2/3 100/2/3 103/2/3
f 105/4/3 101/4/3 104/4/3
f 108/4/3 107/4/3 106/4/3
f 109/4/3 107/4/3 108/4/3
f 110/2/4 111/2/4 113/2/4
f 113/2/4 111/2/4 114/2/4
f 111/4/4 112/4/4 115/4/4
f 114/2/4 111/2/4 115/2/4
f 115/4/4 112/4/4 116/4/4
f 117/4/4 118/4/4 119/4/4
f 119/4/4 118/4/4 120/4/4
f 121/2/4 122/2/4 124/2/4
f 124/2/4 122/2/4 125/2/4
f 123/2/4 124/2/4 128/2/4
f 124/3/4 125/3/4 129/3/4
f 128/2/4 124/2/4 129/2/4
f 129/3/4 125/3/4 130/3/4
f 130/3/4 125/3/4 131/3/4
f 125/2/4 126/2/4 132/2/4
f 131/3/4 125/3/4 132/3/4
f 132/2/4 126/2/4 133/2/4
f 128/3/4 129/3/4 135/3/4
f 129/3/4 130/3/4 135/3/4
f 130/1/4 131/1/4 136/1/4
f 135/3/4 130/3/4 136/3/4
f 132/3/4 133/3/4 137/3/4
f 136/1/4 131/1/4 137/1/4
f 131/3/4 132/3/4 137/3/4
f 137/3/4 133/3/4 138/3/4
f 128/3/4 135/3/4 139/3/4
f 135/1/4 136/1/4 139/1/4
f 136/3/4 137/3/4 140/3/4
f 139/1/4 136/1/4 140/1/4
f 137/1/4 138/1/4 141/1/4
f 140/3/4 137/3/4 141/3/4
f 138/3/4 133/3/4 142/3/4
f 141/1/4 138/1/4 142/1/4
f 127/2/4 128/2/4 143/2/4
f 139/3/4 140/3/4 144/3/4
f 143/2/4 128/2/4 144/2/4
f 128/3/4 139/3/4 144/3/4
f 144/3/4 140/3/4 145/3/4
f 140/1/4 141/1/4 146/1/4
f 145/3/4 140/3/4 146/3/4
f 141/3/4 142/3/4 147/3/4
f 146/1/4 141/1/4 147/1/4
f 142/3/4 133/3/4 148/3/4
f 147/3/4 142/3/4 148/3/4
f 133/2/4 134/2/4 149/2/4
f 148/3/4 133/3/4 149/3/4
f 149/2/4 134/2/4 150/2/4
f 144/2/4 145/2/4 151/2/4
f 146/3/4 147/3/4 152/3/4
f 151/2/4 145/2/4 152/2/4
f 147/3/4 148/3/4 152/3/4
f 145/3/4 146/3/4 152/3/4
f 148/2/4 149/2/4 153/2/4
f 152/3/4 148/3/4 153/3/4
f 153/2/4 149/2/4 154/2/4
f 152/2/4 153/2/4 155/2/4
f 155/2/4 153/2/4 156/2/4
f 159/2/5 158/2/5 157/2/5
f 160/2/5 158/2/5 159/2/5
f 165/2/5 162/2/5 161/2/5
f 166/2/5 162/2/5 165/2/5
f 167/2/5 164/2/5 163/2/5
f 168/2/5 164/2/5 167/2/5
f 173/2/5 170/2/5 169/2/5
f 174/2/5 170/2/5 173/2/5
f 175/2/5 172/2/5 171/2/5
f 176/2/5 172/2/5 175/2/5
f 179/4/5 178/4/5 177/4/5
f 180/4/5 178/4/5 179/4/5
f 181/2/6 182/2/6 185/2/6
f 185/2/6 182/2/6 186/2/6
f 187/2/6 188/2/6 189/2/6
f 189/2/6 188/2/6 190/2/6
f 183/2/6 184/2/6 191/2/6
f 191/2/6 184/2/6 192/2/6
f 193/2/6 194/2/6 197/2/6
f 197/2/6 194/2/6 198/2/6
f 198/2/6 194/2/6 199/2/6
f 199/2/6 194/2/6 200/2/6
f 195/2/6 196/2/6 201/2/6
f 201/2/6 196/2/6 202/2/6
f 203/2/6 204/2/6 205/2/6
f 205/2/6 204/2/6 206/2/6
f 207/4/6 208/4/6 209/4/6
f 209/4/6 208/4/6 210/4/6
f 211/4/6 212/4/6 213/4/6
f 213/4/6 212/4/6 214/4/6
